# xmcd
#
# Track frame offsets: 
#        150
#        22965
#        43079
#        66329
#        82475
#        104462
#        120749
#        144562
#        167878
#        185859
#
# Disc length: 2871 seconds
#
# Revision: 6
# Processed by: cddbd v1.5.2PL0 Copyright (c) Steve Scherf et al.
# Submitted via: ExactAudioCopy v1.0b1
#
DISCID=980b350a
DTITLE=The Robert Cray Band - Shame And A Sin
DYEAR=1993
DGENRE=Blues
TTITLE0=1040 Blues
TTITLE1=Some Pain, Some Shame
TTITLE2=I Shiver
TTITLE3=You're Gonna Need Me (Albert Collins on guitar)
TTITLE4=Don't Break This Ring
TTITLE5=Stay Go
TTITLE6=Leave Well Enough Alone
TTITLE7=Passing By
TTITLE8=I'm Just Lucky That Way
TTITLE9=Up And Down
EXTD=YEAR: 1993 ID3G:   0
EXTT0=
EXTT1=
EXTT2=
EXTT3=
EXTT4=
EXTT5=
EXTT6=
EXTT7=
EXTT8=
EXTT9=
PLAYORDER=
